<svg xmlns="http://www.w3.org/2000/svg" viewBox="0 0 360 210">
  <defs>
    <radialGradient id="bg" cx="65%" cy="45%" r="75%"><stop stop-color="#5d1894" stop-opacity=".72"/><stop offset="1" stop-color="#080510"/></radialGradient>
    <linearGradient id="body" x1="0" y1="0" x2="1" y2="1"><stop stop-color="#e0bcff"/><stop offset=".45" stop-color="#7d3bc7"/><stop offset="1" stop-color="#241035"/></linearGradient>
    <linearGradient id="ring" x1="0" x2="1"><stop stop-color="#7839ff" stop-opacity="0"/><stop offset=".5" stop-color="#d968ff"/><stop offset="1" stop-color="#ffd07a" stop-opacity=".2"/></linearGradient>
    <filter id="glow"><feGaussianBlur stdDeviation="5" result="b"/><feMerge><feMergeNode in="b"/><feMergeNode in="SourceGraphic"/></feMerge></filter>
  </defs>
  <rect width="360" height="210" fill="url(#bg)"/>
  <path d="M232 28c-24 17-34 48-30 74 3 17 10 30 2 55l68 4c-12-27-3-44 1-61 7-28-3-57-26-72z" fill="url(#body)" opacity=".86"/>
  <path d="M227 70c18 13 39 14 52 3M218 98c21 15 50 17 70 4M216 128c23 14 51 15 76 2" fill="none" stroke="#c579ff" stroke-opacity=".45"/>
  <ellipse cx="231" cy="125" rx="128" ry="34" transform="rotate(-8 231 125)" fill="none" stroke="url(#ring)" stroke-width="9" filter="url(#glow)"/>
  <ellipse cx="231" cy="125" rx="96" ry="23" transform="rotate(-8 231 125)" fill="none" stroke="#f3c26d" stroke-opacity=".35" stroke-width="2"/>
  <circle cx="104" cy="139" r="5" fill="#f5c568" filter="url(#glow)"/>
</svg>
